<mxfile host="app.diagrams.net" modified="2024-03-02T06:47:33.380Z" agent="Mozilla/5.0 (Windows NT 10.0; Win64; x64) AppleWebKit/537.36 (KHTML, like Gecko) Chrome/122.0.0.0 Safari/537.36 Edg/122.0.0.0" etag="1ymf1lp5pxQThIPxSHXH" version="24.0.0" type="github">
  <diagram name="第 1 页" id="v73lE37X2wEPEt34DOr1">
    <mxGraphModel dx="744" dy="1135" grid="1" gridSize="10" guides="1" tooltips="1" connect="1" arrows="1" fold="1" page="1" pageScale="1" pageWidth="827" pageHeight="1169" math="0" shadow="0">
      <root>
        <mxCell id="0" />
        <mxCell id="1" parent="0" />
        <mxCell id="Rq8OZbjbkLqVmKXM70_G-15" style="edgeStyle=orthogonalEdgeStyle;rounded=0;orthogonalLoop=1;jettySize=auto;html=1;exitX=1;exitY=0.25;exitDx=0;exitDy=0;entryX=0;entryY=0.25;entryDx=0;entryDy=0;" edge="1" parent="1">
          <mxGeometry relative="1" as="geometry">
            <mxPoint x="220" y="376" as="sourcePoint" />
            <mxPoint x="260" y="376" as="targetPoint" />
          </mxGeometry>
        </mxCell>
        <mxCell id="Rq8OZbjbkLqVmKXM70_G-16" style="edgeStyle=orthogonalEdgeStyle;rounded=0;orthogonalLoop=1;jettySize=auto;html=1;exitX=1;exitY=0.5;exitDx=0;exitDy=0;entryX=0;entryY=0.5;entryDx=0;entryDy=0;" edge="1" parent="1">
          <mxGeometry relative="1" as="geometry">
            <mxPoint x="220" y="495" as="sourcePoint" />
            <mxPoint x="260" y="495" as="targetPoint" />
          </mxGeometry>
        </mxCell>
        <mxCell id="Rq8OZbjbkLqVmKXM70_G-17" style="edgeStyle=orthogonalEdgeStyle;rounded=0;orthogonalLoop=1;jettySize=auto;html=1;exitX=1;exitY=0.75;exitDx=0;exitDy=0;entryX=0;entryY=0.75;entryDx=0;entryDy=0;" edge="1" parent="1">
          <mxGeometry relative="1" as="geometry">
            <mxPoint x="220" y="614" as="sourcePoint" />
            <mxPoint x="260" y="614" as="targetPoint" />
          </mxGeometry>
        </mxCell>
        <mxCell id="Rq8OZbjbkLqVmKXM70_G-1" value="" style="rounded=0;whiteSpace=wrap;html=1;fillColor=#f5f5f5;fontColor=#333333;strokeColor=#666666;" vertex="1" parent="1">
          <mxGeometry x="100" y="310" width="120" height="400" as="geometry" />
        </mxCell>
        <mxCell id="Rq8OZbjbkLqVmKXM70_G-22" style="edgeStyle=orthogonalEdgeStyle;rounded=0;orthogonalLoop=1;jettySize=auto;html=1;exitX=1;exitY=0.25;exitDx=0;exitDy=0;entryX=0;entryY=0.25;entryDx=0;entryDy=0;" edge="1" parent="1" source="Rq8OZbjbkLqVmKXM70_G-2" target="Rq8OZbjbkLqVmKXM70_G-3">
          <mxGeometry relative="1" as="geometry" />
        </mxCell>
        <mxCell id="Rq8OZbjbkLqVmKXM70_G-2" value="" style="rounded=0;whiteSpace=wrap;html=1;fillColor=#d5e8d4;strokeColor=#82b366;" vertex="1" parent="1">
          <mxGeometry x="260" y="310" width="120" height="400" as="geometry" />
        </mxCell>
        <mxCell id="Rq8OZbjbkLqVmKXM70_G-23" style="edgeStyle=orthogonalEdgeStyle;rounded=0;orthogonalLoop=1;jettySize=auto;html=1;exitX=0;exitY=0.75;exitDx=0;exitDy=0;entryX=1;entryY=0.75;entryDx=0;entryDy=0;" edge="1" parent="1" source="Rq8OZbjbkLqVmKXM70_G-3" target="Rq8OZbjbkLqVmKXM70_G-2">
          <mxGeometry relative="1" as="geometry" />
        </mxCell>
        <mxCell id="Rq8OZbjbkLqVmKXM70_G-3" value="" style="rounded=0;whiteSpace=wrap;html=1;fillColor=#ffe6cc;strokeColor=#d79b00;" vertex="1" parent="1">
          <mxGeometry x="440" y="310" width="120" height="400" as="geometry" />
        </mxCell>
        <mxCell id="Rq8OZbjbkLqVmKXM70_G-4" value="" style="rounded=0;whiteSpace=wrap;html=1;" vertex="1" parent="1">
          <mxGeometry x="580" y="310" width="120" height="400" as="geometry" />
        </mxCell>
        <mxCell id="Rq8OZbjbkLqVmKXM70_G-5" value="&lt;font style=&quot;font-size: 16px;&quot;&gt;&lt;b&gt;模型任务定义&lt;/b&gt;&lt;/font&gt;" style="text;html=1;align=center;verticalAlign=middle;whiteSpace=wrap;rounded=0;" vertex="1" parent="1">
          <mxGeometry x="110" y="680" width="100" height="30" as="geometry" />
        </mxCell>
        <mxCell id="Rq8OZbjbkLqVmKXM70_G-6" value="&lt;font style=&quot;font-size: 16px;&quot;&gt;&lt;b&gt;中介代理&lt;/b&gt;&lt;/font&gt;" style="text;html=1;align=center;verticalAlign=middle;whiteSpace=wrap;rounded=0;" vertex="1" parent="1">
          <mxGeometry x="270" y="680" width="100" height="30" as="geometry" />
        </mxCell>
        <mxCell id="Rq8OZbjbkLqVmKXM70_G-7" value="&lt;font style=&quot;font-size: 16px;&quot;&gt;&lt;b&gt;计算节点&lt;/b&gt;&lt;/font&gt;" style="text;html=1;align=center;verticalAlign=middle;whiteSpace=wrap;rounded=0;" vertex="1" parent="1">
          <mxGeometry x="450" y="680" width="100" height="30" as="geometry" />
        </mxCell>
        <mxCell id="Rq8OZbjbkLqVmKXM70_G-8" value="&lt;font style=&quot;font-size: 16px;&quot;&gt;&lt;b&gt;深度学习引擎&lt;/b&gt;&lt;/font&gt;" style="text;html=1;align=center;verticalAlign=middle;whiteSpace=wrap;rounded=0;" vertex="1" parent="1">
          <mxGeometry x="590" y="680" width="100" height="30" as="geometry" />
        </mxCell>
        <mxCell id="Rq8OZbjbkLqVmKXM70_G-9" value="&lt;font style=&quot;font-size: 16px;&quot;&gt;模型&lt;/font&gt;" style="rounded=0;whiteSpace=wrap;html=1;" vertex="1" parent="1">
          <mxGeometry x="120" y="331" width="80" height="40" as="geometry" />
        </mxCell>
        <mxCell id="Rq8OZbjbkLqVmKXM70_G-10" value="&lt;font style=&quot;font-size: 16px;&quot;&gt;数据集&lt;/font&gt;" style="rounded=0;whiteSpace=wrap;html=1;" vertex="1" parent="1">
          <mxGeometry x="120" y="450" width="80" height="40" as="geometry" />
        </mxCell>
        <mxCell id="Rq8OZbjbkLqVmKXM70_G-11" value="&lt;font style=&quot;font-size: 16px;&quot;&gt;推理&lt;/font&gt;" style="rounded=0;whiteSpace=wrap;html=1;" vertex="1" parent="1">
          <mxGeometry x="120" y="569" width="80" height="40" as="geometry" />
        </mxCell>
        <mxCell id="Rq8OZbjbkLqVmKXM70_G-12" value="&lt;span style=&quot;font-size: 16px;&quot;&gt;损失&lt;/span&gt;" style="rounded=0;whiteSpace=wrap;html=1;" vertex="1" parent="1">
          <mxGeometry x="120" y="381" width="80" height="40" as="geometry" />
        </mxCell>
        <mxCell id="Rq8OZbjbkLqVmKXM70_G-13" value="&lt;font style=&quot;font-size: 16px;&quot;&gt;优化&lt;/font&gt;" style="rounded=0;whiteSpace=wrap;html=1;" vertex="1" parent="1">
          <mxGeometry x="120" y="500" width="80" height="40" as="geometry" />
        </mxCell>
        <mxCell id="Rq8OZbjbkLqVmKXM70_G-14" value="&lt;font style=&quot;font-size: 16px;&quot;&gt;训练&lt;/font&gt;" style="rounded=0;whiteSpace=wrap;html=1;" vertex="1" parent="1">
          <mxGeometry x="120" y="619" width="80" height="40" as="geometry" />
        </mxCell>
        <mxCell id="Rq8OZbjbkLqVmKXM70_G-18" value="&lt;span style=&quot;font-size: 16px;&quot;&gt;有向无环图&lt;/span&gt;&lt;div&gt;&lt;span style=&quot;font-size: 16px;&quot;&gt;分解器&lt;/span&gt;&lt;/div&gt;" style="rounded=0;whiteSpace=wrap;html=1;" vertex="1" parent="1">
          <mxGeometry x="270" y="350" width="100" height="59" as="geometry" />
        </mxCell>
        <mxCell id="Rq8OZbjbkLqVmKXM70_G-19" value="&lt;span style=&quot;font-size: 16px;&quot;&gt;节点性能&lt;/span&gt;&lt;div&gt;&lt;span style=&quot;font-size: 16px;&quot;&gt;预测器&lt;/span&gt;&lt;/div&gt;" style="rounded=0;whiteSpace=wrap;html=1;" vertex="1" parent="1">
          <mxGeometry x="270" y="430" width="100" height="59" as="geometry" />
        </mxCell>
        <mxCell id="Rq8OZbjbkLqVmKXM70_G-20" value="&lt;span style=&quot;font-size: 16px;&quot;&gt;任务&lt;/span&gt;&lt;div&gt;&lt;span style=&quot;font-size: 16px;&quot;&gt;调度器&lt;/span&gt;&lt;/div&gt;" style="rounded=0;whiteSpace=wrap;html=1;" vertex="1" parent="1">
          <mxGeometry x="270" y="510" width="100" height="59" as="geometry" />
        </mxCell>
        <mxCell id="Rq8OZbjbkLqVmKXM70_G-21" value="&lt;span style=&quot;font-size: 16px;&quot;&gt;节点&lt;/span&gt;&lt;div&gt;&lt;span style=&quot;font-size: 16px;&quot;&gt;协调器&lt;/span&gt;&lt;/div&gt;" style="rounded=0;whiteSpace=wrap;html=1;" vertex="1" parent="1">
          <mxGeometry x="270" y="590" width="100" height="59" as="geometry" />
        </mxCell>
        <mxCell id="Rq8OZbjbkLqVmKXM70_G-24" value="&lt;font style=&quot;font-size: 14px;&quot;&gt;子任务&lt;/font&gt;&lt;div style=&quot;font-size: 14px;&quot;&gt;&lt;font style=&quot;font-size: 14px;&quot;&gt;设置&lt;/font&gt;&lt;/div&gt;" style="text;html=1;align=center;verticalAlign=middle;whiteSpace=wrap;rounded=0;" vertex="1" parent="1">
          <mxGeometry x="380" y="371" width="56" height="40" as="geometry" />
        </mxCell>
        <mxCell id="Rq8OZbjbkLqVmKXM70_G-26" value="&lt;span style=&quot;font-size: 14px;&quot;&gt;节点/任务&lt;/span&gt;&lt;div&gt;&lt;span style=&quot;font-size: 14px;&quot;&gt;状态&lt;/span&gt;&lt;/div&gt;" style="text;html=1;align=center;verticalAlign=middle;whiteSpace=wrap;rounded=0;" vertex="1" parent="1">
          <mxGeometry x="375" y="609" width="70" height="40" as="geometry" />
        </mxCell>
        <mxCell id="Rq8OZbjbkLqVmKXM70_G-31" value="&lt;span style=&quot;font-size: 16px;&quot;&gt;有向无环图&lt;/span&gt;&lt;div&gt;&lt;span style=&quot;font-size: 16px;&quot;&gt;构造器&lt;/span&gt;&lt;/div&gt;" style="rounded=0;whiteSpace=wrap;html=1;" vertex="1" parent="1">
          <mxGeometry x="450" y="352" width="100" height="59" as="geometry" />
        </mxCell>
        <mxCell id="Rq8OZbjbkLqVmKXM70_G-32" value="&lt;span style=&quot;font-size: 16px;&quot;&gt;任务&lt;/span&gt;&lt;div&gt;&lt;span style=&quot;font-size: 16px;&quot;&gt;执行器&lt;/span&gt;&lt;/div&gt;" style="rounded=0;whiteSpace=wrap;html=1;" vertex="1" parent="1">
          <mxGeometry x="450" y="430" width="100" height="59" as="geometry" />
        </mxCell>
        <mxCell id="Rq8OZbjbkLqVmKXM70_G-33" value="&lt;span style=&quot;font-size: 16px;&quot;&gt;深度学习&lt;/span&gt;&lt;div&gt;&lt;span style=&quot;font-size: 16px;&quot;&gt;引擎&lt;/span&gt;&lt;/div&gt;" style="rounded=0;whiteSpace=wrap;html=1;" vertex="1" parent="1">
          <mxGeometry x="450" y="510" width="100" height="59" as="geometry" />
        </mxCell>
        <mxCell id="Rq8OZbjbkLqVmKXM70_G-34" value="&lt;span style=&quot;font-size: 16px;&quot;&gt;点对点&lt;/span&gt;&lt;br&gt;&lt;div&gt;&lt;span style=&quot;font-size: 16px;&quot;&gt;通信器&lt;/span&gt;&lt;/div&gt;" style="rounded=0;whiteSpace=wrap;html=1;" vertex="1" parent="1">
          <mxGeometry x="450" y="590" width="100" height="59" as="geometry" />
        </mxCell>
        <mxCell id="Rq8OZbjbkLqVmKXM70_G-35" value="" style="shape=image;verticalLabelPosition=bottom;labelBackgroundColor=default;verticalAlign=top;aspect=fixed;imageAspect=0;image=data:image/png,iVBORw0KGgoAAAANSUhEUgAAAKIAAABkCAYAAAAFQ+uyAAAAAXNSR0IArs4c6QAAAARnQU1BAACxjwv8YQUAAAAJcEhZcwAADsMAAA7DAcdvqGQAABZgSURBVHhe7Z0HmBTFtoDPzEYyYkABLwZEfaKYLwbMejFe81Px6jV98oyfEVERc/rExHvKJz5M1yfmCJhQEDOmi1wDXgyoKKBkNs/Mq7+2z1rTzAw9u7Purlv/9w1bp+tUd0/36VOnTlUPsZRBPJ4WJh789XhaFG+InlaBN0RPq8AboqdV4A3R0yooiCG6A2/KYdnFrQ/rQlP0w/WFkF0yybrNlhMJClYGV1910/SdenDlcH0m2SWTrNvcsuLKWq/b3LLiyuH61clR8B6xQKRqa6T6laclv8vvUbwhFoBUdaVU3Xuz1E55JtjiyRdviE0kVV0llf97i1S/+Hje3ZHnN7whNoFUXa1Ujb9FajDCZDLY6mkM3hAbSbKqUqpNd1w9+THvCQuAN8RGkKqrk6r7RkvVZN8dFwpviHlCTFh1701SPelR0x0ngq3mQpZ3kPKjTwukAGOkiV/mS/W0SVI3+1NJJeqCCk8Yb4h5kKqplqr7bzOe8LFgSz2xsnLpcNpwKdl+N4nFYsFW030vnCcrR/xdKm4ZLisu+bvUGg+KcXpWxRtiRGye8AFjhJMmGAv7bWASxwhPNUa4z2HGIn8zQqh9e4okfv7Blmlf++rTIsaYPaviDTECSVI0401M+ML/pRmh9YTDLpXSvxwhsfiqlzLWpVtQCujYxVxxf8kz4a/KamDaruqB201MOMHEhPXdKv/GSkqlwykXSslef03rjl1Kdt5HSgcPkSITP5b02VDKhp5hNpYGtR6XgqzQZhd6M3R3ruzeKLc+rAtN0Q/XN1XGE1Y9eIdUP/cPK9t6UxcvNUY47HIp2bveCPmE24LdZj6pihUipeUSKy627VU/VbFS4p06B9r1+to+vL9McvhYYRnYFm4Lrr7WQz76UeUoeI+YhWRdndRMGCs1LzwSbKknXlom5adcJKX7HBrpQtNlxzt3NR60hDtjt3GjEv/+l6wcdbrUzfms4ca1Z7whZgDDqJnyjFQ+dV96iqasgxmYXCxlfzkqr6c9DbPvui9nysobzpPaL/4pFaMvleSihUFl+8UbYgYS330l1aZLtsu6AjQmLB1ijLCoKNiaP4mf5krFjRdIYsFP9fL3c6Tq/tvbfY7RG2IIZk2qHxkryWVLgi0G072WHftfUsLouLGeMCDWrYcUrb9hINVT+/ZLUvvP9wOpfeINMUTi84+l5t3XAqme0t32l/JDTzTxXuM9oRLv1EXKzxwlRev2CbYY46+pkerH7rGzNu0Vb4ghWEkjblzYsbOU/+2c+sFGgSjq2dtOB7q+NWnixeQ3XwZS+8MbokNy2WKp+3B6INVDTBhfe71AKgx07yW7HyTx3n2DLdi+CQmmTgyk9oc3RIe6f30kycqKQDIGU1omxbsNaXJcmIlYaamU7f3XQKon8emMdjto8YYYQMom9dUsm15RSvr2k6LeGwVS4SnaapD5pziQDPN/kOTSxYHQvvCGqJDfm/tva5BKvG9/iZU135RcvGcvia+xViAZj1hXK8l53wVS+8IbopJMSsxN2Rhia/U03XLzXaJY5y5S1L1HIBmSxisvXxoI7QtviIoZKZNDdIl17BSUmodYUYlNlP+G8cbtdJmYN0SFHGFoxiRV3cxGwZIyJ1VkTNMM09vn6hxviAoj45AHTC1emBYzFppUxXJJuIMTcw6xLt0DoX3hDVGJx6Woz4ZpqZrk3DmrdNeFJPnrAkk4Cx6KSksk3uu33GJ7whtiAAYY3+g/AqmexLezJbmwfnFCc1D3xcz0mHCdPhLvtkYgtC+8IToUD9jOvoOiJFYsk7p3pjRL98zysvBPlBQN/LMZwDh5xXaEN0SH+Dq9JN5/y0Cqp2byBLuSutAwi8IrpkrcDJTKBg8JpPaHN0QX0z2X7v+f9QOXgMT8eVL95Pi0BbJNJbF8qVQ+eKfZp/M24BbGG2+8eSC1P7whhijZblcp3nSrQKqn+vmHpea9qaY/bXoXzVxyzcP/neYNySXaZWalZcGW9oc3xBCxDh3tIlhxjCJVVSFV/3O11LIooQnGyIrv6sfG2Z8qUdhbyY57SPE2O9VvaKd4Q8xAiTGK8oOOC6R6kksXScV150r1y09JshGzH8kli6TqrmukasLYtCR2Sa8/SfmpF0usuHDrHdsi/nVSQyY5aQYolbcMl5oZ0+w2oD5eUmJ/WqTsmGFStEF/8yjHrX54X2C31VZL7ftvSLUxwNpvZ9vtqk+qptOI26TYxIe6TduH95dJ1jJkkoFt4bbg6ms95KMfVY6CN0RDRtmUE8uWSNUdlxtjfMNup1517VrFzQdK8U77SnH/ARJjFY3xatSmqiolOf9HScyaITXTX5LEvLlpgx32Ee/aXTpcMlpKBuyQdvyM52LIJGsZMsnAtnBbcPW1HvLRjypHwRuiIZecqjSecex1UjNtko3xtA6otxK5v7JyiZV3MBuTpk2FTVQzKg7vG0r+tLGUnzXKGPI2q+4vx7mAK2drC65+uC24+loP+ehHlaPgDdGQS6bMr4DVTJ0oVf8YI8nFv9g6cPXDbUHba5mX80sGD7HvwMR7rI1yTn3IJWdrC65+uC24+loP+ehHlaPgDdGQS9YyJBb+LDUTH5Ha6S9KYsG8NP1wW9D2/HZi8cBBUnrI30w8uK19LzqXvpYhl5ytLbj64bbg6ms95KMfVY6CN0RDLlnLoPV4xbqZ70vte69JYvYsif06346EqUafJokOne1gpnjrQVLy5z0lzoKKYGSMTvhY4B4v07mAK2drC65+uC24+loP+ehHlaPgDdGQS9YypMmmnESfl50YnBjjZCqQl6J4iT7WuasJBs3gJZY+qgZXzrb/cH0mOVtbcPXDbcHV13rIRz+qHAVviIZcspYhkwxsC7cFV1/rIR/9XHK2tuDqh9uCq6/1kI9+VDkKPqHtaRV4Q/RkRT3b74E3RE8ay5Ytk8cff1wuu+wyGTduXLC1+fGG6Elj3rx5cv3111tj/Pbbb4OtzU9BBytz5syR5cuX221u4EqZT3l5uXTt2lXWXHNNKeZnfAPcoFb1FT09trllxdV363myv/766wYZwu2jyFoGlfv37y8dOnRI0w+3Bbe91kM++rnkbG3B1Q+3BVdf6+HLL7+UY445RlauXClHHXWUNUrIpB9VjkJBDfHEE0+UGTNm2G3uSWmZv0VFRdKlSxcZMGCA7LHHHrLPPvtYw8ykD3p6bHPLiqvv1r/xxhsybNiwBhnC7aPIWgZkzh9vsdlmm6Xph9uC217rIR/9XHK2tuDqh9uCq6/10FKGWNCuOZFISG1tbdZPTU2NVFRUyPz58+W1116TkSNHymGHHSb333+/rS8kXIy6urpVzqEQH73QnsJRUI94/PHHy3vvvWe73QsuuMD+1TqMFCP86aef5JNPPpHvvvvOGibE43E55JBD5Morr5SOHTumPUl6emxzy4ruX8uA/M0338jTTz/dIEO4PfIHH3xgP3DwwQfLFltskVavZUDmXNHDi7v7C+8b3PZaD/no55KztQVXP9wWXH2th5byiDRqMslk0v4dOnRoql+/finT7aaqqqrsNq1TkI2nSn3++eepiy++OLX55punNtlkE/u55pprUsbjBJr1oK/7cMuKK4fro8hjxoxpOP4zzzyzSr1LJlm3uWXFlbVet7llxZXD9Zlkl0yybnPLiitrPR/uy8CBA+19HDFiRKCRWV9ZnRyFFhk141WIsa699loZPny4lAS/xjphwgT7RHraHy2avqHrpjunWwa66kceSf9/TTztgxbPI+IdTzjhhIZ44u233xbj1m25LUFMRaz5yiuvyOTJk2XKlCny6aefNsTBUWEwNHv2bFm0aFGwpR7SUWQk3nzzzcj7JS6nh5k6daq89NJL9kN78oOmNwy08qO6ulpmzZolb731lrz77rvy448/NnpfLq3iZwVMPCJlZWVi4kp7wZcsWSJrrLGGHU1zU4FUzJ577mnLUZg7d65cccUVdoC0zTbbiIlHrdEXEh6YL774Qh544AF7YxYvXmxvPjeGB6u0tFTWWWcd2X///W1qy01TZcLEqHLbbbfZazB69GjZa6+9ZMWKFTJ27Fg78GL/7JueZO2115Zjjz1WTj311LR9Us/1e+qpp2yaicEh15VzRY/0EznQXr16yRFHHGF7I651rvOiLYPLBx980GY7eEh4YLie7IsB3nnnnScmtmz0NW5xjwiaWwQdXXNhttpqK/v0ffzxx/Lwww/bdEwUuBl4JoyDthtvvLE9RiHBQG6//XY5+uijrQEtWLDA3hy92YABfP/993LPPffYNBUPVS5v/+uvv8rPP/9svz+wTwyN9rp/rg9eif2agYXVU/je9CiMdm+88UY7wVBZWZl2TNpz7njKG264QQ499FArZ4MJijvuuMPqcQ/UsNkP94P6d955x/Zqzz33XM7vl4tW4RG5gHoxuInMwIAZUdtBDV3Rhx9+KD/88INssMEGti4X3KhJkybZMh5p9913t+VCwQ3Aw7766qv23PECu+66qxxwwAHW6PHuS5cutV01RorRkDu95JJL7E3EE60O9EhnffTRR9a4t99+e+vZgeswbdo02Wmn9HehX3zxRbn88ssbZre6d+9uz2nbbbe13hjjoSudOXOm9Wx4TgaKpMwygec7++yzrXHzPfF4O+ywQ8M9+Oyzz2TixIn2u3K+1113nXUeG26Y/h8aRcIcoMmYp8D+jZq+0W1aNjcq1b9/f5tCGTx4sE3vaP1DDz3UkF4xHqihreLKuj/jBa0+5zJy5MgGHa1XKOebviG9xD51/5yvibtS5iZn1DceKWU8ik1ToW+6sZTxILYurD9u3LiGczGe0OoPGjQoZWK8tP3z19x8u2/FGFfKGKpty7E4R3QgfCzKtDUeLnX33Xc31PNx0zfsa9NNN00Zb2evqe7D1efeGWNv0B81alRDXT60iq4Zr2HOxZZ56rRrwxPsu+++dn4aXnjhBds9rQ66CKD94Ycfbv8WChL2nC/gZcyNlF122SXrMfDu55xzjo2h+F5461tvvdUObnKBx+vWrZvtFvHo7v4pE8poz8E1IfGsvcppp51mPaOGO2Foj9c+7rjjrG42ON8zzjjDxqjcl/B3RO7Tp4+cf/75DbEhAyM8b760qCFifHQTxutZmS9GLOVCUM6cNNDFvf9+7v+zjkCf+BDo2rfcMv3XvZoCN3z8+PG2G+ImMXvEMaJADMW8OvCdiatywY0999xzbZe8Orj5xMKw3Xbb2e5Uc7OrQx/6TOy3335y5pln2gFJLnhQOneu/3+nuf4aGuRDixkiT83rr78uZ511lh0NAp6FjwvGqTEVbZ599tmcAfH06dNtYA9HHnlko0dxmSC+ImUBxIKMhsNeIhuMoE866STriTh/YqtcEGtFOX+9JvzlXE4//fS0lU1NoVOnTjkNVUGnd+/etsx5rM7bZ6JZDBFPR0CPB+FDd8RIkOCXAJc0AOkMnlxGidC3b1/bnXDDwnBTGLQAI2FtE4aLQPfN8UlJ5JPuiQLeWEMDUivcqHzge9CVATlBzjcbp5xySkPXmwsGCjp6xhg4RktAGKHkchTZaBZDJNnKwoC9997bdqu4bhPU25ElaQCm9vSm8hTvuOOOct9998lGG2X+X54Y1ensy8KFC60nzQRdNzEccExyZYWEdIjCMrZ8wVPxXeGXX37J2YWZQUJQyg0Ptz6YjFY1nv69aWrP02wekRQDFwjD4WJx0d08IAbIzSTIJk+mniIbDFpIRwCDEXdfCikJAna6Ch6EqN1mVPhOwH7NCNGW82Wtter/pymuEXnDpkJYo9eiZ8+ekbrS1kizGCI3iiCebkI/5LLwkHTJV199tc3zPfroozb+y5bHcll//fVl5513tmWWkX311Ve2rNAdPPHEE7aMZwjn2AqBJpr5flHOORPuIIJBT1NhHxg1EH8W+uH7vWgWQ+Sp5MUbDEM/rKwh1cFLOax3I9iPOrIDXL8OWrjwTHnpDQCMU18NoPsvVMDuoiNDjqsDrHzROWIMJlt6JR+II9X46HUaE5+1BprFEJsL4ivN6pOiIVUAGAa5PW4CAwhmE5oDvDJwvPD0WlQ0nuNhJQ/ZVHr06NHwQDOqzxSytAXalCHS9WiekTlPRtBA4M87KsAgZd1117XlQoMXV/DA+UL2QAdThA+N7d5dMET9vgymiMnbIm3KEIFBC12k5uJIgTACxzB1kNJcATvzrJpeYuaDByAfSNmoRySLUIh4jrSJJtWZOya53RZpc4ZIimfQoEG2zNo6UjYaL9JtM0hproCddBAGBLz/Sz40akxGkpcYmZQVnpA4thAQO9NL6MM3ZsyYvB+Q1kCbM0S98BgbS5xYC6izHUOGDClId5cNBkCM+nXKi/WSrMBZHXht5oz1JS1i2H79+tlyIeDhICsBpMpYGcTfKHANWwNtzhCBC69xEaNxRqJ4BNbhNTd0z7zeAKROuOl33XWX7RbdUTzgLVmgiw7ek3oMkEUChQwfGKwwK8VsEtBTnHzyyXY+203vAGWuF285smyLyYXwebcEbdIQSVlo16bTZMzarLfeerbcnGBArKTBK+OdyS2yQJbzufTSS+3K6JdfftkuImXVDXrPP/+8NUoGKHfeeWdDUruQECey0FWn2phKZW6bFTac17333mtDg4suusg+SAcddJDtTYh1/9CG2NxfjgvpzsVqd90Uop4zXfRVV11lb6rmFokZn3zySbv4lYUc1GOQ5PY4LwZZGEMhu+QwzK2Tv9V5eYyfFe6c180332xfQ2BWihE/sSoPEjNErcEQi65kGXAB4GLj8vliLEViQEG6RevCuNvC9VH06Y5Yek9imUEK3Z0a5ur258qamOa8WfnDwoHwsVxUxhhZMc0oHWMk1uLmclPxmvpeCHPtJPFZ96feKtv+ORfaY6zMQpETzXZ8yFRHyELiH2PkfvCh16COa8ZcNAtMWOLFebFaB4NU8PC8vMV04dZbb23vpZLrXMhhkhfld4H4zsTqYf1ctNlfjCVlwxo/LjJd0IgRI2wdaPvw/hsjaxkyyQpGyOsAeEC281DwmgJGShtX15Wz7T9cn0nO1haQ8YicD7lFcpgYHOeDkZGGCu9b0UwA9Wqk7v5VP6ochTZpiEAXSNqGC8qAhQUU4f0VQtYyZJKBbeG24OprPeSjn0vO1hZc/XBbcPW1HvLRjypHoU0OVhihatqEIJ3XGT1tmzZpiLytRpcDjFbzefI8rZM2Z4jMUNAVA8ExSWxP26fNGSJdsv5Q04EHHtiQxPW0bVqtIbJ62V3SRADM6pKbbrrJjupYdTJ06FDfLf9BaJWjZgyQl4fIx7EGkVdKSRizwJZVNuhfeOGFDe/kuseCQspahkwysC3cFlx9rYd89HPJ2dqCqx9uC66+1kM++lHlKLRKQyShyg8M8f5JWJ+/xIXMFJCr020Q3l8hZC1DJhnYFm4Lrr7WQz76ueRsbcHVD7cFV1/rIR/9qHIUWmXXjIGxwJWEMF6RL0Rilblk5m/5gSF3es/T9mm1CW3+MiNArMgrAcwI0EXzyaSvZSikrGXIJAPbwm3B1dd6yEc/l5ytLbj64bbg6ms95KMfVY5CQQzR42kqbTKh7fnj4Q3R0yrwhuhpFXhD9LQKvCF6WgXeED2tAJH/B/gjjDAARtvcAAAAAElFTkSuQmCC;" vertex="1" parent="1">
          <mxGeometry x="583.3" y="350" width="113.4" height="70" as="geometry" />
        </mxCell>
        <mxCell id="Rq8OZbjbkLqVmKXM70_G-36" value="" style="shape=image;verticalLabelPosition=bottom;labelBackgroundColor=default;verticalAlign=top;aspect=fixed;imageAspect=0;image=data:image/png,iVBORw0KGgoAAAANSUhEUgAAAI8AAABtCAYAAACY7zIaAAAAAXNSR0IArs4c6QAAAARnQU1BAACxjwv8YQUAAAAJcEhZcwAADsMAAA7DAcdvqGQAABmESURBVHhe7Z0HdBzVucf/U7do1WVLtmTLBReMC2AcF8AUBwgtIYSAD4TQSYAk5L0EXgI5kJfw4HFCznvknRcSAgnlkFASQg+QENNigmkG27hhy0WSLau3LdP2fd+dWXkly9LuIh6sNL9zVpq9M7Ozc+9/vnLv3RkpScDHJwdk77+PT9b44vHJGV88Pjnji8cnZ3zx+OSMLx6fnPHF45Mzfj9PhjiJFiSbngYSzZCqz4ccqqbak7y1YxNfPMPg2HEkm1+CvetBOL27RZkcKoc84ctQJ54NaMWibCzii2cI7I61wK7fwGpfRyKyvVIXNjpq0VSg5iKo40+kAsVbM3bwxXMASbIwdXB2PwC76SUSjeOVD46kSFBKFkCeciWUorljSkS+eNJwEm1wGh9Fcu9TsOOdyKZmFD0IZfzn3XiooNYrHd344mEci6zMC3AaHoLdtZNsT+6ooTLIFAsp1efRm7BXOjoZ2+Jh0XS8B2fnr+F0boQztIfKGEkmS1RQA2nSJZArlkMepSIas+JxerbBqX8Q9r5XSEOGVzqyyDLFQ+ULIVNQLVNcNNrioTEnnqTZBbvhEXJRj8NOdHmlnyyyHqJ46HjIky6nNL/KK81/xo54rCjslr+Ti7oHTqw5axeVtJMwW6KwmiQEZwdJENl3zivBCOTqlZCrzoQcqPBK85fRL56kDadtDWxyUU77BySabE83SUG0gURjD6XwFhLrdbIeCsJH6tCnBSi+ya6XmfuHlMJaskJfh1JxPCvKW5N/jGrxOPF6JOt+Dbv1H7CNhFeaOU6CxNLQDbuT9uVaSkpIbAgg6YVIWpWCgiUhqBWqW5AFkqJAKZ0PZfIVbjyUh4xK8YhxqMZHKLahuMaIe6WZk7RsmPuiMPb2QtgVbwwrSa6OxQPTe+9VXWCGhvDCIJRI9gGxosqQK0+hoPpCyOHJfcfKB0aVeByrF86+F4GGP8Dubcg+riGXZrXFSDQ9ZF0casf+DTlQPCl4PzkoIbQggMCh5Na07OIh4cqCpUD5F6HNuCJvBDRqxGO3vYXk7ntgtX9IjZl9h43VnYDRQHFN1OxnbdI5mHiYVDUqpTLCR5GIamm7DOF9zeYo0KOj+JLVbI68NZ9t8lw8STjdW+Hs+h2cltdhDzMONZAk7x+zhGjsrjiJhkQxxFU/lHjSYUukVVM8tJjioXJ2ZYNvz1Vvdxsw6rsoPrOhF5Si+Mp/+uL5pHHiLXAornH2PAXHIDeT5Vk4BsU1Tb2wWmOisQe6qMHIVDwMV6ukclqvCXfGGVo6dsyE2dgNizI5Dsb5+GqwCCXfXOOL5xPDsWDteQJO/cOwo3tExWcFna7REoPJcY1JcQ2XZRhjZCOeFFy9ctiNh0JzKFOz6fh0bJO+AwaIVlEDKL76XYqZMnd5nyZ5JR7HiCH24reghDfloBnur+G4plu4KknOvpNPkhTIiYVIbP4Qlml5pZnB1k0tl6AdYohsbjBLJ8Rz1TuQ9fzo+8mrOcxJarCu5+vQ8XQ3zAaTS9wVw8BBcKKuA/FtHUhSbJGLcBhZUVB4xU9RctVtKJg2B0qGFovhzkS7i6Is68AsLl/JK/EwHNSaTTaJqBfdL/VQlnRwC5CkADqxuxOxLa2wOhJuo33chiPhBRefipIf3oPiC74HvbDwIOHw6CfvxMO4V65E1sRG52M9iL4dFdlKCk7VOfWNbmim/xRbJElyI3y1S+EihE+9GOW3PYHSU1ZSphTx1gzDcMYyj6xSXoonhRAECSP6roGOJ3oQ35IQFia2pY0sThelNCmhfXIopZUIXXgjSq67C5EjjoaqDtPLPERvgnCnlBDkC3ktnhQ8j9jpSaLndQqoP+ykGIcC4qxEw7EIJVG7VR5HzRo+lj7jCJR8506UfesOhKunIJuBCoXiocCE+Sj44q8oWM6fiWOjQjwMN6CQC/3JRjgsFqtJQWJ9APY+dXi3MhSUJemLTkLJLY+icOW3ESwf760YHP6WgZJqFHz+FkRWPgKt9mj+8u7KPGDUiCdbuIPCbpdhbNFh7dbIXbDqvJUfE7YekTO/gbIfPYCiFV+BFgx5a1z4MHqoEOGjLkXoqw9Dn3ceuSz6DnnGmBSPE6WMbasKs05DMkpVkOWcnEyRx9eg6OKbUHr9r1A0bzE0Oo7K2dq05Qif8xBCx/4AatEEb+v8I796mC0TXQ/chuhrT8IabH6OlIR+qAE5eOApsTzUSDkS2+IwGijAoUD7AEtDuwXmxyENNAJURfyJSjiAorN+AbXqeFJGdkMIXM2Jd16EHJGhzzyR9s9++sZnjTwcnnAQ/+A19D5+FxLbN8BJ//qDiEeIJlhA5V+COucCdN/xL4ju2eWuHMgg4uHqYZ3plRFo40LQwiEolSuAiedDiUzzthqb5O/AaLQbsVWPIfrk3TB6e9w4d4B4VHIT2pTjEFh2LZRxc+DEY+i86dyMxeOQUNXSEPSqAshhlYS431QpoVIo1eeKVz5PJf045K14UlhtexF7/H8Re+N5GImoEI8a5tR3HrQl10KvPZbO0m10O9ozvHjmxQEtCSmoIji5mNxMf9GkI36fFZkMufZKSGXLyBPlx4DmSJH34mHYQiQ+XAPj6V9DLq1H4OhLoc7kXyj07/UdVjwOiWehCX1SGGpZkMSQWT7BY15KxTJIky8hsc3MqqsgnxkV4knhxKNI2nEoBWVeSX8yEY86TUJkaQEFx9kFtA6PlBvjEDj+HrJGlV7p6GZUpepyMHxQ4WQE1YZZ56DjkR5E34nCSQwxluDBojF4HG19K+zGZiSdHLqo85RRJZ6RQLgc0owYL/szj5fFxej8QNhgW51xxLZ2wNjVCSmHedP5ji+eg8Dzb5weBz2vxtH5dC/MRp4/5GJFDcS3tYtXMma6A5pjJM5JxxfPEIjxMnrZLQ46n+1F5wtkiXZ2I76pDU6XQetk11KNUXzxZALpgy2RtdsiCxRzBTOGRZPCF082sF58zfThi8cnZ3zx+OSML550uLtUpT85ZN0aZVxq7dGQA0VeyejHF086PLY1K0EiMEgNpCAW0zD974oiI1RzOMLn3I/QKT8/YEhkNOOLZyAUEKvjbAQONaBMsFxLNIiAeP6YmEJ64o8ROus+aJOWemvGDr54BkWCpJJuSDz67ASUSv5FQ0pESWh6AKGFlyB87iPQ558/pqxNOr54hoC7cuQAebAaEtFcEhFZpPCME1Bw/pMIHXcjlMLRc3PKXPDFkyGyDgSnyQiuuAFq+SFe6djGF49Pzvji8ckZXzw+OeOLxydnfPH45IwvHp+c8cXjkzNjSzySJCbJ5wpPN+XHIPm4jCnxKKEChC//KYqWniwGNDNFjGOV1SJ83A1AZKJX6jOqfreVKfxwNuOdVeh95L+QaKrfPwODFsTPjXXvPaEHAtDmroR+1DegRIa+385YY0yKJ4Ud7Ub8+fvQ+/zvYfR29xOPqqrQpx4Pfdn3oVb4wxGDMabFk8Ks24Don+9C7L3XoB0WRWDSbOgLr4Z6yEmQSUQ+g+OLx8NJxGG8uwpJpwHBhedACpZ4a3wOhi8en5zx+3l8csYXj0/O+OLxyRlfPD4544vnM0Q8bmDnzoPceOozyJDZVuK+nyDZssd7lzmyrkNeeR3U8TVeydjAMAy8/8E69PT0eiXDoygKZs2agbbWdmzZuhWlpaVYfuzR3trPNkOKJ/7TCxGv3+a9yxzRpX/93dBqZnglYwMWz99XvYz29g6vZHg0TcPs2bOwceMmWJaF6okTsXz5Md7azzZDui0JSeiK1P+VNqrMquO7mg/cRqGX+xunsQ1bFR7mGO7F1+8Q1/BnliEtj/XRWjixqPfOgzY3H7wVZle7GJnWvvJtyOMneStdJCpXps2DHCzwSsYG6ZZHkWXMXzAfhYUR985hQ5CIxfHW2+/Atu28sjzZ9zCTaY3dfC4SLXuh01Wjfe8uaNMO81YeiN3VhmRnCy3YkCLFUMoqyd4deKfR9BtBSt56u70FyS7alypfKhkHpbBUlB8MJ9aLpJkQ2yvhwkGPMxC+gyqMOCRVhxQisWdx0yYnTsfjxxhoATHdI108GtXNCScch/Lycm/rg1Nf34DVb/xzWPHwLYNN06Lr1+mzWp8muYnnpq8i0do0pHishm2wX3gA5ub3ICWikBwyzTpV8sSpUL9wIdQ5S7wtSTi9XTDuvkHc6lYOR6B8+RokX30c5ro3IBkxIQaEIlAPPw7q6ZdCLuh/Jwpz09twXnkc1u6PIFlx8pgstnIohyyAsuR0qDXTvS33Y9eth/3yn2Bs/xCKGYMtKdAqJ0FeciqUo1ZAJjGlcPbVw3ril/wjZDhFZdBOvRjW8/fDWk/fzzRgk3j0w5cDZ175iYjHMExs316HhsZG9PZSME765s8fP348ZsycgaKI+3Pnrq4ubNy0RXxOpCCMOXMO7Scw0zSx4cONiEZjKCsrxexZM701LolEAu+tfZ9EmhTPAFu8+HPemsFRfkx4y5lB6rdWPQabrnI2zcqyM6CU9p/nYqx5AdbdP0R8x2ZxZTuWCce2YNMVbrXuhbPmRWEVlOnzxZXuxHpgPPM7mM0NsDrI2nzwKhJb6SQSMdqX9qOT5uNZdRsgffQe5IUrhKVgF2pQI5oP/ScSDdvhRLtg8/HIItj0Ofb29XD+8RSSPZ1QD10kRMhzeaxnf4vE/bcisXsrHBKu2Ic/v6URzvuvAtvWQZq1EDIJlrGp3PzjLxBvrIPU2QzzrRdhrKPG7u1296XPUAoKIdH3qtuxg1LuuKibqVOnIBwefuZiV1c3dtfXi7inqLAQtbWTvTUQQly9+g3s2LmTsrgeIQCTxBSPJ9Da2oZdlNqruobSkhKuDhLPJjQ1NSHaG0V1dQ0Cgf0XQXd3N95c8xY6OjrEZ02dUivishT7Wlqwbt16OmY7IkURTJ7UPxwZyIj381g7N8N69L8Rj5K1ofda2Xhocz4H7fBjxJXNmNzoz90Hc+0r4n06SRKa1dEKjayLNm8J1COWQx9fLT6LTWRi2waYJF7Gbtrlfo73mGq9YgLUGYdDm3oY9JIKyCRMm8Se5Arie/3Tca2/PYzYXx6AwW6U9lHDBQiMr4FGLpXfW3SQxKZ3YN57k+vSBmCSK7X27ibNS7QPfUcSDT/jQppN4hxhekkAb739Nlrb2oTLkkmQHEMVFxX1WRS2FmvXfoBdu3YjFApSqu/OBoiRgDvJEqWzb1+zt0TnQS52YFbY1tIqrBYfZ1z5OK/04Iyo00zSga0XH4TR3SlUGVh8CjRyQVJhifhCTm8nlMd/icTqZ2GRuVf++hAUElY6QnDUmPpl/w5t8kzwY/OTPRSAPnQ74mtfEwKy334J9gnnwtq6lmtB7KfTtoFr7qC4qJisnC1cobVuNfDGM1BPvkBYHWvPDpjPPyAqiEObwKKToJ12ifh+dCnDePMvsJ4jC0jWzvhoHRRynfLJXxOfn4KPrxWVQj/nO1BIqFyS3L0FUvUh/EjTPmwy/dygzc0Us6Whaipd0ZOhk7UYjg83bURbW7tYLigowPz5c1FJroqF29XVQy5mLa1vo7o0sX79BlRVVQo3yR2NbMVaW1swqWb/tNkWsiwsQiZB4mlpbUVlpes1ePsWEg8jxDOuQiwPxYhaHnvfbjgUfzAqW5wvX0UujSwAXyX0hWQKePWzr95vgXaSf67fLpZTsLXQTrsI2pRD6Y0iTkShOEM9+xpyDd6tTNr3IcnujywDNyajFPBDRoppQRMPtWdXGlh+FvTrf0P7u3GH/cqfYFH2yAINzjwSwYtuhDJhCu1H4q6oQvD0S6CdcbmoFK5i89UnyDV18q59sJXRKcPU6cLg4F8pq4K6YDmUiv5zmx1KADZv2Yq173/Q77V581YSr2sphyJKlntn3U7RqOxaFh55BKbU1pJ1CSEYDFK8U4HjKDZiN8f0UCy0Y8dOEtc40XeUEkOfWMhC7W1yLU/q9r9Ne5tE3xLDcVBXt2upisiyRSLDZ8ojKh6nfitMsjqMVDUFCmVIKfgRR+aWd8nlPCriBEbiJ/nu7d8JqVLALNceGIBLxSTCcreB7AQFxT3tUMhCsdiYGLka4w8/g9W4XVRcir77JFMl2hvXCLGpVKSsWEkLaZOVPdSlpwlXyzgdzbApLkpHImGq8zPrAU7/HikGKxuMpqZ9fc8SKyFXNHHigU8EZBFNnz5NnCN/7l6KdSIUPLOVYjo7O4VomDaKYzijZXc3ocq9NUwXxUCxGCUkYrlLxFFMeXkZWcYD62YgIyoeqW0vWQq3sVSKOZIUhBrvvUzB6S2I3XoZEv/zr4g/ez/szlY33qBtk+Qu+kHWRgoM8vwqOmlHd5/VyZWQJAGps46ETCIVZZS+xl9/BvE7rob125thsQUk95TC6iSTTfEK42g65OlzxfJA2Dqixp2zbJNpl/bUieUUbMVk7gYYBm5QbqTJk2r6vdi1pAepB4Mbnt0rU0GuqO8iGEB5BX0fss4Mx0gcUFdQGcNWhYNjhq2QQesKyKJwQM4i4sCej8Nw/JOKd8aT9cqEkbU83qMb+Xox3n8dvT88S6TgsdXPwWqup8ZIiAAzQKl98IxLyKXcA/X4c8Q+WSGuSErI+Ql+37gVwVmHi2d3cqlFsU7vmr8hfue1iN52Kaz3XxMZGyijk73nXmvkppSD/H5LooZlV8RNxTfu5v36kUHDMyptxzHKsmVL+72OWnhkRle16QmHG7NgiIwtGAhRRuU954vqhQXAAuX92BoJC0ZWlzMwJkKun9ennv/e0EjuX6zfJ94HggExvpYJIyqeFFzx3IgijSWXq1PcE6CsKXT+ddC/fxeC3/8lAmdeAYXimo87wVypqoV+9c8Q+tq/ITh1DhkuslxUblHAapDLif/mRzD/cp9wW31Xr/fvkyZTFzUcQ32OWDdgfXlZWV/c00GWpacnKlJ3poJcEru7kpJSsb69vU1YINF/RBRFCocUazojKh6FUleGT4WzHv2YLyJ09e0I/OBeBK/8D+jHnQ11IvloCmpHErZA6tFnQv/unQhfeyf0hSdS5bmiFP0if/29CLAtTzVmN5no6EFGvunKtVr2iHPgNnG8vp7/b2TuWiC4gVMNOxiJRAzxhJtxinqni4eFk0rZ2S2xS4rG4giQxUu5tHH0ny8m7mNK9fsw3PGYcoPDMaLiSU6YTp/omkO1aioC530X2oJj3cA5g6GCj4sQEcVBoStvEVmWPtGNhxwjDofSabnU9eUy9wpvWyeWB2J3NkOibRmFGkGmFPzToIwaP+V6Wlrdfp7BaNrXTNu46wqLIkI4LKCJE8j1kji426FuB8dtSeEuS0pcUVVVTej7/C1bP+IgTexXVZX5DxtH1vLUTO+bw2PWrYf1ziqxPBC7J/MpC0PBJ+607OUFr2Q/2uRZUD938v4TJBeqzFvmujTa3H7p4cE7AXmYgwJ6RuY0fNKnIx7uf0kF1p1dnahvaBDL6XB6Xrd9h6gHFkoVBegpq1FaWib2N8gqNTY2im1Ky0v74q3CwgLR+82ibGwkS0v/XXeW+U+ORlQ83F+iLPmC27NLijcfuxPGy49TI7lm125vQvzpe2H9/CpK29eKso+DTZlQ4uffROIPd8Bu+EhUUAqnqw02pe99JTw2tuQMqFRBTGLrWpgP3S6GHhgxRPLcfbBeelT08XCzaUtPhRQaPrP6JOCGnVw7SYjCtmy8++5a7NixizIo18pw5+Abb7xJAnLdjdi+Zv/ku8LCQoQLQmJ/frGoKsftz6LSXRuvZyrGlff1XGfCiIqHUY8/D8HZlELTskFBc+LhO9B7/Znove50xG48B8Yz9yLauBP2b2+CtXeHu1MOSKQK64+/QKJtH+Kv/BnRn3ydPv8rSNzxTcRvvwzRm86D4YlHYXc2bwmU6mlQT73INddUHl/zV8RuXonoDWcj+oMvIf7k3RQjufGDNmU2lBXnieVPi7lz5qC4pFgsc3/Mm2vW4Kmnn6bXs/jbS6tEjzGjKCrmzT1MdCCm4KGK8rL9g7IskHFp4hFiqqzsEw7/Z8uVDSMuHpmubPXimxFccIxInynpEZ16PP/H4vSTvqsejkBaehrktE5EPgfOjL1uokHhyWmpbRxKu2U6hlbhptWc2BoUFMe2foD49o2wYq6108hMq6ddTC7Vfepw4MSVCJ5ygbgRN8N9IbyfFY+5Foe3obhJv+wnkL1+pU8LtiaLFy1CGWVP3NjsYrjTjwNod4hFEq5mwfx5mDKl1ttrP9w/lHJjxcXFfZ2HKcooJU8NnPJwSXmGKXqK7EfVCYfcheiW5679uUuFu0qH74HDDatOO4ziZBVaKAytpAJazSFQF50M/exroC06CZK2v78jqVIjH7IA8swjoUybS+v6P6Ocp0NQTUCZTBZh5kIKjI+CdtgSqAtXUFA7TbhKiVwPj8SzEnkwlXuCeShBW/T5vjlCoO+j0DGk6fMgcw83idoxYpACYQRmLECAhyjOvJyEnTa2QwF3sm0vlKopkKoprps3eA8zN260N4YANSg3FvcK9/XBDAFPueC5QBFyNdy7m95Jx9akpnqi6H9hocei3COcRFFxEaZMnoQjDl8gjpMSSToquSbONiMkGt6GM6l02HXFKQsL0jHY6vB0kFSclQnZz+fx8fEYcbflM3bwxeOTM754fHLGF49Pzvji8ckZXzw+OeOLxydnfPH45IwvHp+c8cXjkzO+eHxyxhePT8744vHJEeD/AJdCvXJR1oY8AAAAAElFTkSuQmCC;" vertex="1" parent="1">
          <mxGeometry x="588.18" y="440" width="103.64" height="79" as="geometry" />
        </mxCell>
        <mxCell id="Rq8OZbjbkLqVmKXM70_G-37" value="" style="shape=image;verticalLabelPosition=bottom;labelBackgroundColor=default;verticalAlign=top;aspect=fixed;imageAspect=0;image=data:image/png,iVBORw0KGgoAAAANSUhEUgAAAKMAAABUCAYAAADu+4chAAAAAXNSR0IArs4c6QAAAARnQU1BAACxjwv8YQUAAAAJcEhZcwAADsMAAA7DAcdvqGQAAD3OSURBVHhe7X0HmF1V1fZ77zm3Tu/pPSEhjV6lKconRXrHn67YsFBUrIgoqAhIE+mIAoZQAiKgdAgQAgRIIb1OZibT78zt55z7v+8+M5CECRkQP+d5vlk3Z869p+y99tprvWutvfc5CRRIGKRBGgAU7NkP0iD912lQGQdpwNCgMg7SgKFBZRykAUODyjhIA4YGlXGQBgwNKuMgDRgy44y9Q43aBwKB9/e99HGPb07bu8ff63gOAYS5J1MBj3+4FWwUvAA8FKCzadfl+QCiwQIi/K3rArB43kXQ4i38HgjkeQ2PByI9ZfXNX1/HRH3y55KHQhouTdfxosgjg6AbQjykurPkLkGrrkYwmKVAoygEMvBYf5C8fqisj9j3hz5pWX0d314Zfd0j2tZxUV9lBIP9w7wtBr23LqiXPu7xzWl79/h7He9bGR3+7kw5eHTOWrz4fCeyGRsjhjk45ZSJmDy5GFaQqhpwYAVCvD7IBnHHT4ACMPvN6tqc+jom6os/FFw4bhrtHVE8OHsjXntzNbXSxoSxZTj+xPEYMdpGKGDBstNUyhj5camMISrjlsawvX1/6JOW1dfx7ZXR1z2ibR0X9beMvmgAIWOeyhii+qgD9ddXxqwDXPrrt/HYY41wcxPIcBEVrw1D6tK47PLJmL6zjQh7PUCsFAWIRr4ybl3Hlvz1dUy09T3ae3CQSBTws5++jeefi/NXOYKBMM83Y8yoZlxxxV6YNCkMy0obPgo0Co/3Bvso66P2/aFPWlZfx7dXRl/3iLZ1XNRXGf1FRnOVbvrvb0S1nu9sEhvBv3TRLz6fwJxHQ0TIschbHnJWBtlABdY3Dsf1f1iBbM6C69E9m3bQTVKRA0RLFbNl+f/GRsT+179a8OILAeSDFeQhgqQXRoZ8rFlfjptvWUz+KHjxwJCBashtqzL+D2/9pQGUwHzAtGK+3t+vvrYWebcELmMxKCYMOigQgTw7g3cXpolY/M1m0JOSMmxRnvscNx/tPw0SN88+0w7XHQ7HSqAQakIg0s66upEvlOGNBV1IpsWxzStVb+82SB+HjDIKSv/7m/jweZE1mT07NJNNkssk3a9HtxdlKBnjRrYDOcZxEeSohB5TCnW+KYcoWSjIVfplfCobP6lcF//SNfN3wAvBYj0W+VVsmHEscqBrmXDJMMx9NJLNy/g/vPWXPn03rQ8VQVSgy9TGA+a4oZ7f5iev9/fUKLP3jylK0zVqxowZoxmfdTHuSPM33bD5MJd2Yxg7ughlpXLRfnmBniSG8OlfZ+phBq6yVK4pX2XTlZpM3Fd4s5lrdc7nwd/ruP97tz1rKdhOHi4GiNRSyCDDiGAwg/ETyhGL6kJeXxA/ft2mGP7pS0aGZTHks+5v/O3zw4++m98+8TJKxcA/f/Rco48pQmd5J7N+Msf7+FuHSP453cfzgnj+7K3XnOV3XVMw4YXuZyJJQ5ewzHUkT9eaTaMKupacMOGUvHTF+7xq65W57uNHcu8vffpu2ufC7MW0aahpyAfHe6Wiv/4mYTFTUUNEVCbDmQUc/PmhmL6jA8/r4PGYcdfBYA6xyEaccXoEFeEwM1kNp6gkIpclobI8UymzWpZrquYfHerhiEfM0ff3Cg0KvNYc0SGR+OT3IFHuS4cNxUgmK7ZHdGbmjBBdNI0jFl2Ls88cjpjt0miyvF4doqhRLrvvjvA88uSyq1i24YnlO2bzz7keJcKqHZ50yYPLfZ7nslIG3m9Ckh5GpUQuwxPDv6d2pxhO6D56DpaZdSSDJI+l4dCNuCzfUR28NO/mea+DnEPf4vI4HYzLirMOFc3UQYl4KXofXs9rVG+Gp+SNHPLoMen06zWN4j1qkI5lWY94Y/livJ/0n8mme+qn7HSRb3E6Rn7Fosl0e5CDp/0+M2X4Ls5cL+K5PHV0fX0ON960HPPmufwdQHlFK844cwK+9MXhiITUQS5sW/cqcRE/voX6fOm4qvDLNPVpb+rntf7PHtI9VL4exmTpPj/sbnbQ6rXA769eiSWLmC07QYwYHsJpZ9figM+VUBkTIC7znlKWTZ5Y/raGdlJZD/MXJHhtlJ1PxWbCRZAVU6xbZZiCxI45pr2+eoyXx41ivbXM3G2VxePiUUjGkMXl+dUr0njphS64Vorngjh4v1qMHRemnjhYuTyLl19uhRO0zb1HfWkUZUmv4xYjn7fx9NNrkcmXwqFRHbRvFWoqiHAsM0cjz6ZDuPnaRWhoKIUVasdue9g45ripsC2H7ZQR0vi8CDyCgXgNapgtQG/GRC8YkmS2T0YZe75/SGi99PGO90hOnW++8pwxYwpM8ZwZmKY1MdHwFYZIQ9dmrtNxlSVYVBkBaiItLU+r9BBFIhlEJxOWoUPCFEIB1D/eo4010DKD7MlehdZYX8CMO/YqKc1ZFzPeVA2FoO++DZ/iSZ3Kb7KYoFCWP3xlFCLwHm4e0S9LVOlk7pJNBzC0jkIOy+VnGT+meV+MWxHkLT3WF5LL3kw+vfv3VuVw/Mn/QMEZwk6rQN4jJFEeqr9Q0JCRRgWUEVGhGQ4ECtx4Lmg34JRTyvCdb+2JsKWQJcx7hMBEPFaa5n1X/KINjz4YZKKVQnE8i4fvH4faWnoOymv58hS+evYytHUP430d+Ob5RTj7rAryGUZHexjHnzQHG9tHUURtuOPmnbHnjJhqRVfewqwHNuL6a9YQ8Wpp+O047dSRmDIlCos80pyMvD3JlnKVrOsqo5gxjeEMawqG/WG37dF/bpzRL5LnyJw6XvBtlJJWaQRICPcy/B43FmUQwcrxmBqj32xYIMXzzJypCIFgnGWEWaAUjhdTKQLKIIzyyQo/4EP798f5jJKlTGd7ivP4kXHwMO/VtRKCrJoHLCUgMpIUXZB4lEWzHiEPLVy8yi0qaw/IUBwK2SJPGkoy7ZVRCRWFDjkqqFz6lnxpv4TKePSJL9LWhvPqKtbFMhl6yDhcl0hia1SAiRt5CKjNrJOmgFgwgVtum4ppO9oIy5g1wM6/AfKeJ48rG7M496zlaNpEo6AsD/5CCNf+chIsl+0iwhG/cOmvluCBh1ifW4NhVetxxZUTMGNqKZKpME44+S2sbS1n3a24649Tsdf0KBETuPeBBtx0k4vuHEHBkqxpfGyfTQCwqIBB8ukGOwxguEGeszoxckgas/92BCIWr7GlrtsnEzNKQJ/Wxj9GQPqnTbFPMm2jK11ECytBVy6KbkJ+MhOjS4grLDEhoq7VfcQTpHMWOjNBdOSK0JGtRtqpJCJF6T50np1Gt+C7Ym3qYFXb+1soaDjgpo8qcBgTsVzWl0xFkc3EkWb9qTR54ObR9QuBTabMa6XIOSZIyWwYXbwukStHl8PriT5ZutUCioiUxSaWUz0foJc6ir/Jg2V42ZyvDzZdWay4l+gUt5oQtxu5b0aciFQcbkHEbiZaZRHyyhHIDaEQq4wy7r13ESZPFvpKEaWofn0yqALrf+qxNJrqqxCySxDmseOOorKrTkmWXinIoPScMyZjxFCPXiWI5rZyXHLJu3j97QwS+QBDEZvHA7CcMtiRNJa8l6Ryz8P1Ny5DKsNyXAKHEyKih2g0toljczS8bCDD73T17mhk8xMpo8lI5eqomDRMxSr9pE/dTcvdCj0M+tBiFPBec/VbWLqMWKGpO9qUzY4NsROOPWE4vvD58bQsWj6FKXBq73Jx5RXz0NBUxNiGXcBstSgURHlpAXvuOgJ771GBIUNYBi0/aCnGonB6Mljf1ftBtcckI+gJhRWEO2hs83DllW+jq5Mui+jrsDM1rxymIvzwogMxfkyEPLEsDRmx61eszOGq3y6gUhZR0HQ1ARvRSApDqi3st8947LJLMcoqgrCIOL1TkWq9CQcM+eHA5vLp3ScSLha+0wiHiq02CLV0rcpQMXkacDYTwo8uXoV8bizjvywi0ZW4+jdTsO++xZRgN7cKdh4RjzGa5s03tYfw5VOWYWNLFZUlhV2mduOGP05HSQkNg55Bxss4g7gfwRPPtOAXv1iHrmSpQaNoPI8ZuwNvz88jmahCjDK84e442upt/OyHrUhbGbbfwdhRYRSFWSfbYRBE/BovZ1HGSaxew/iyQNfMa3eclMWf75qKqJVg+ES07Qf9hxIYuUGiEZu6bGkOZ53+OpGxDgHGV16BLphWWl26EbffvjPGjIlSKTJEC0I8If9fz23EJT9ayE6YxOOSnzKzoImOLCpRbWUOhx1VilPPGomyKF0FlURDOr4yChVlBPK6SiCEHgEqVwH3PdCIy6/YQB3REA3drFwrEW3SxCbcdcc+KJG3JUJ6dCtC4KuvWYx7/5Kka+f1VGxFrbBayTuzeRrT6DFdOO3cShz2xWGI2mopK6VyKZs37prGRUFsIZ8P9ixLLkHz5xK9fLwRX5CII+x38dwLnfjBRSuJ2iN52qPyd+DG63dELMbEx4QSFRSz3C+NnGVdd91i/PnOEqJRBNFgC378/TocfUwpy2WoQNdpplsZDgmtMkxWZj/ciKuuXY5cajzDoHIUIst5nohJ5Q9a9bjp7mFoXt+Ny37KrM2O4ZQTR+C0M6oRimh8lX1Bfs1YKpXSIYp0pYL4zvlvMElSHGnhS1+y8JOfjGb/UDbBYjVuuyTDMAL6tDZN4SnYzzmEb/bLrNlrmXiMpBDo2qhyQrEc0W7v/aowZkSM8YziJd7DgD1LZfjb3zYgmxvDBpaxtexcutcAFdhhjJRnFrixpQa33J7EOV95E4ve0zAFhcFM13PV0Roe4iZr7VFE9XU2F8ADs5rgFIZQ0diBFKBb6DYR4UnHTkNxVImCH3hL55qaXTzyeAOtvI7drrhMysbwwKvgsXJk7DhWbCjCZT/fiB98/x2iOBGc9avtUnApofeRU5JMkmzFokQtKqTiY3WuRd5tbi7jtNmzW+j+ypFnthoOZXDMsXWIRXgvs3UEKomeDBmohImUh9vvXs64ro3ypowpw7HjUjj4kDqjrJoWNsaqVUwmAy8gFs7hhOPqcNmlE4h2G+kd6mEXyqjkpewnZuIKgSj76qoAE6Y4/nLvTJzz9TombhnceM1SbNrgMLQASiMeSiIuyuIFLF2RwJr6LI2Hip13sederF/GR+PtLxll/DRJjffYcQHLQkO9g2efboBNNys0cB1BOxgXeTji6FrjojRkJ7gn/uHdxZ14dyHjQq+GyEYlCwqRaIk8F2QMpyTCeBuvCssWDsGlP16JtRvZcwyQtUqH0ESBMsukQglolNm57Nz5r3fSYpV0EDWldF4xg+9S1A1JYJ/92YGMz9RJmmIkaOCpZ+rR0VHNGKicykucYgcJvMA4UZ2EQMJX6PwOePZfZbj88uXoTDO5IR/GbREVg3SlprF9khot9yZNMQdIupb8BdNYuiiPBfOknBpDBYaOSmPPA6qwYFErXn+rBXNf6cAzT7fhvnta8N1vvIubbkygu2scIsEolaMFZ39lLMLFwlfxI//i86HQKcj4zgok6Wny+NxnhuCGP03HWd8AJkzU8Az5sdPkLI0Yxbr31BH4zjd3Yf1B3PfQCgLAIjxwfwY//9nbWNfoMntneklkbk4EccP1y5FOl8EKWRgyshszd4nRsBgSaXC8n6QeNBr8qW0SqMVMmQ3755ObkOioJXoJdYg+VK4AEWSnaTZ2mkE3QxnpDg0QS0GeeWIFg2cL8UgziuKrGJ+0IGYLwbqIoJp1iVPp6BrspIAPK1dXMht8F0kquQJloW6BrkhlUs3pCRkAEOzuv6+eFSmY53FWSnYYt0Zx2OGlqGEMqGRDSYvnxc2QzdNPLGJCwTQl3M6tlUjSSfQgH4F2CriLQT7Ri66+EErT7Mrx4twIbr/rPWTZHmXSshgzXKX29cpli03Htz7Pe7llmU0/8mALFb0MXo4JSiGFI46sQnu7i+/94D2c9+0l+Pr3luKiH23AVX9oxry3ionWo9iLZQhb63DqqRYO3L/GtL8QUlZPeclDSGBsM5wSome5SbpiDC9qqnJ0qWNQXs6YnWjrUdpeyOZdyoI1fEbFtFJwszY6O0PIhwpYvKIY37t4Pt5ZkURLVxi/uuI9GjuTrEItDaARR51YgYoqeSY2yFhx/+hTT2A0uJrn1tQCnHvmAtRvGEWEE/Koo8zwKa76zXAcdEApbFv3KgeVm0ub5CJNl5rXWBWD9lwmgtZNOaxZ24rH53TjnXcKSCubtTWvQit3KogGm3DxJZU4nm4szA4OahhDCyko7DwrfWthAt8+bz26k8PghjrY4SFmqh4qwnn89aFRGDmMvAvtDKKljdvvTNDicxrvI1+8Np320NSUxZIl9Xji8VasWFZEoZfShbIeQlchW4yqsnpcd/1kzJyqBC1EpY2wyC3ls8VeysKPSGOkhZ4YcuV6F6efuAQJJjAazqqt3YTb7twJf7ljI+6areSMBt3bBeRNaE8VRllRG848rRZnfHkS4lGiNst2Ke+QQWm/LseRYrIatkvhjMNwatGiLC7/1RosWxGnFwhz64LDuPmu20Zg3ynM3BXe2jkmokX49ZXL8dDjLCdTQSXNIxRrxLARpVi9qpussD/52WX3Jvzu97uiKi6PxsrEoyUvsH361JHRCJkCeOWldmxsoKulZSiDNoPHzJrHT8phrz3K2E9y3RKOLyDFFmWlAdTVFDCiNo/hVS5GDwlgp+khHHFENX5/7SR8/fxSRMNt1HjGZV4JlTtPgVbhsUc2UdmUQrBuU58QhYpES39sziYG11QeISorMolGoBv7HVTA0FotfJAApHQSXJzBeYSKFcHwGg9Dq13ugXEEnt33cHDql0fgD9fthsMPozuiKwsYt81smklLd0cF/v4IEyQNWmv8s0ce29zkQTS+KLURS+oK8ftoM7oylJc0rpDA5w4pZQyew3NPrEHIJW65jCH5O+J2MZptRVVRJ44/PIabrp+Js84ax4xf7aGh0g1b7AeNQfp1MonROC61K8Pf6xsDuOa6NTj/229TEaWEEgTvoVxDHuXFupTsOGyPx3hf4dT53x2Hw4+jckeaCDqElUwNVq6Qp6mjGnZh9Mi1+NEPp6M87o/xqryPMzf9byIjtd50r/Y6Lph3kSS6KYNevKyUbkwzLMygNX9Kt/C9C0tw1rE1VEYbLn/LjdhezFcGWjlr4fWyfsaOygBZohIUzXRk3BJcfdVq3D8ryQC+wo9vmNnGmP3dduc0TJtaZKIxdaq2tY1ZnHTyO+hIDjexmMqSiy4tyuKPN4zHrlNp+WZYhW6J6G0GuMkrsY1tIzobBWZRikHpfh0NmjIO6ugO4iK6qXmvVYHwwL532IEhZvrNmPXQNFSUZYnQDBfMAPEHcvtgTyaEaJSf8MDVoD4Noq01h5PPegsbG+Wiq1Bd14AbbpmIKJO7N2ncbpDJC+9VklNdXYQRI2OoqgkSFQOM1ZSYUbGpVBaVyCg3yzQ6ptiZuyxDoGcYw2vF/NxXUtjUVsREKsZWZxGJsX0Zx4wU2AxBbrlrFHaYEEei20ErM+WVS7uxZnkSc+d34b0lGcqk0hi7hrY0Rz1jSho/+9lETJpA+clDMWxSX0oZzVx+P8gg4yci9RIbIQGbcT1ZnjJKNm3uq11YvqycboLdz8xZy7oCdJ+ja5px2AGMZ+QWWbPcs1lQYPSY1ixujAvRxkZoDpUQH7KZcNCFxJhZnnzSKFRVZXg+TcEJ0TLMKksx/01mcgyWPbp9xX8aq/v7IxuR6a6kQBLUKKGERbeewa4zbewwSY8HMEr3Kzd16hkaNqznkL4rC2VGamlgKU4+tHWhsiyJE08aTZROIci4jo1jht2GRoJ2fT1zb5e8fMRgr8FnExpQZsqYKMMMO/Ufz3agoVnutRQWM969d7cxcXic8VwV9jt6Ag4+shZHMBw59vjh+OyBFWxDEFWVTFMibIdCmyBRSw8DsR3GoFVZkIZMdy0zb2f48esrl+KxfxXQ0DqMR6p4XSumTWvGz346FhUVVEheaxY6UMGeeWkdDj3yWZxw8ru45MdNuO2OFN5dEmGCWUfQiyPsANVF7Tj5aODGG3bCxIkxKieV0IyOEKLIgAKq/pK6v0ehPubGakxgbIrxSUfzORuPPLwKeYfuRRhDDbPYqVrRcsjnqjC0UsISsxIPvymw1l4KaJSBR5WMsDE+CrMGNZDJC+0NQ4aEMWIYFYfZdYAJh8ZE8gz66+upGLxWwznkDK0dLp54gokAfwsllMlLsUJWN45kQhBmIB7smdQX30ImjWb6q21EOiOlMY6dguVffgfr1EKKnafXIhb1l1upPscmQgQjWLeWfJhpRd3bI6u+Nn3kRlm22pkiMD+kRytcys0L82Azw5NaxqMefvzDR3Du2U/hK2e/jgvOfxUtzazRTCCIM3kRys3IS8huuKX8iOra+EvJi+Sic4F8DTzHZvsTqKtajXPPKcV11+yCPXaNEBHJOw07qDBDfUBZeO5wJlNUPn4PMJGBlyUwtKG8bDWOOiaF62+ahIt/MAaV5XkeFxLzOtNtlJUMjm3sLxlllDA+3qabaInsPLkvoaHmcuUKVixLYcF8WjzjBRSiZqotSOSMxVtx1LET6RZ4v6JiCkzl9F3+5psUhZvMjN+DtotI1GVmW05hh2ilNq2xCF5eyiZ+FOQ7eO75Vmyo1/ik5ruJNAIgutOx4y3suXeNj8JCD3Ykq+EmfvqqX5sEzZDB5Xe6X9CVl5azviA7h8qoqTmLIYTFOCqd1Hx6T0bfZ1k9G6Vl5p1DKQUHeGNeCsuWdvEb4zMmcztNj2LXPcsRjrv8Phkblo7E0qU1mPd6OW67axVSTHgKREFNzQU1t28UTmj4wYfMkQvNbfMa/rXp4qtKNmHHCRvxvW/Fce+9u+C8cyagusxGhPrHAATxYAfCuShC2ShiVOCasi7UlndgdK2N3aaU4aunR3Ht1SMx57FdcclPd8DkKUUI26pbZqGwSkgo3WD7xYGsoZ9klPGTEVXPoI72LlXLIhtBPDC7Ht2JagqKSqpBV34suskDDixn5qX8Sp2uoF0KuX0qMLtVswp00cxrkWM8mklp8DzF6uWCJOwCIiEKgNdKeZOpAh6Z08KsvpwSKuI14kKjbnkcfcxIFOkQlU/opQ4zUvsIYqn+R9fRnWr9YEsb+ZHr50GDPERqTWuWlhAN2G4jn22Q30nmL9sgZC9g9r1tRKFyGrWFqN2B44+rRojsKRX50tHjMWwI5UU3nGWmO2tOPe5/YD3SjGE9LdPiVfxjOl4D7zIyT6MOmqExtfEcjam0rBu/+d1uuOPPB+K004egrpaJEGNx5v4oZtLxk8t2xi+vqsSvrqvB6EkBTJtZiR//YgZ+/fsdcOW1Q3HDrePwrfNHYv/9mGyWpcifpglZvtrLOjUNLDTWZKtGTkBjDQQ13to/+jeU0W+k2UugtNSWduDJf7bSNRZLT03nBSmhMLOvo48eCptu0R9vJFoaaOoHSbCUtcuGaz55+YosVq/iMauTbkNxqjq9DeMnEB2JoA6RYsFbSSzR7AzPuK7morsNsg2tdXDwwbUIU7G19Cm4WWAtdd0WyZ2qY91gnlsaGaL9iy/XI5WKUfAKAohIrNsiqowZy7bLPnvu7ZN0kgpspkzJ39JlebxBb+IWtHg4i/Hj89jvM0wupOyUU1Ut8M3ztYA3zY4vQiYzljFaK/785000C5oYO94fnGd8Tv4Q0KofJV9+AigvZtSaylxcXII2xrbNmyw0NkbQ2BRE4yatCQBGTRiCydOHYfSUGqTSEfx9dhaXXrwOPzz/PVz49flY8o6LlkYbzQ1h7kvQ1BRDU3MADez3xmYLDQ0x1DfGWF4ULa30Sk6ERtGrJ9unT5RNywXJNSshMNjIxqfdEG67dT1uvZlKo2EXIqNIo/377NmJq67ZC/Ew3Z1iD3563Zhq36Lsrep2NTfG7s4xBuno9nDhBYvw5vwyxmhpukVZpI14bBXuuXsPTBwbogDC7LgFePk1Kicdj9DPCqSYkWZw5pnF+NrXx9KipS1CUdWj5m/WVm5b8yPLMkmalJH1LVmWxfe+O58dqXWB5NGha6USjB+xCQ88sBsiNnGYyhAy03AfbpsZU2SZHpEjx1j4l79YSiSPmunOAFHxgm8W4cyTh9BYwlQ2rbBhKECjvOnmNbjt9hYaw0jWWgbL68Ree6XwjW+OwoRJUXoHtSTH6xUCyAPJwBi68KNFaCtWpfDVM95EV16xfTWP8hq7mbzwRioytGTPqebRCHl3keuuhReNkYduRNnXsdAmlsMwSEZCPDWksEihCjcTYyruZrum7ejhTzd+nsibZwzav7jRwIGE5I8D+psQRsvGtUSqzz2NTe5EwzgaKlG23NHp4MmnWpDzqADsGDPDQMu32IGKFS0xTHQxKMe+MHtTzmZl97Ep0dGy+EXvJPHTH71F1CMaMtt0GaNpdXOQmev0aSUYMtR/eH7x0m689ZaE4ycfgWBSuIXSuIcvHFLL7yTyy2aa+hVgmLp6+Nq6/t5NjwB0py08/0IbfnzRWmxqmMBuYTavbFX5A5L47OdGI8wsWAPlQlpfrn1s/HgUnNZnrtuQwovPt/OIFpEUUFzq4n++OILKpNg0D4sorvWeTL1w7pnjmdQUM25uhmMxOYtk8Nq8CM479x38+AeL8MTjLVj2novWTXHGrkVwGPvJhaovKGI220aa8XMiV4tUoArddoRqVotkfgYy2Z0ZAk2irEdQ2YcgRWV1LJYT6IZLV55DHCmnirHqCAZL1TzOcyhheUN4/QSem4iUOw5p7jP50SyHIZKtAKJTEu8XGWTMe7IKCSONbgauv7m0HWvqLbi0hIIyVv9SaS13Pooo5rHYQkvxAhWmM53DqrWMF1wFwx6ybKye39hhdAL33TsRxUSLua8ncdMdq1gPbVXKahBH5XGvDK6XVE8PFRwLqQTQsCmFVCbPWIRCzsdhh+IUUAIVzI6vunwYDvhcJQWloYs1eGgW3QNjqZyQhm4tjmYceaiHi38yTYBI9FqFZ5+gXwpW0L2lDOIp2fLzcKKX2irq2SmLd3Me2ts8NDdZ7LQy/8oQO0pDOLx9VG0nbr5hJsaNJ7oIkRSqqIi+kFGaT0XLBsO4+bbVuOXmBL1JBQ2nC2efFsC3vj6VWT8vUdnkQfxocL1AjEp0xXHr7Rvx1/vWIp1nEleoZBsZu1EawVCeSOShJFrM0KgBx58cx9mn7MxwRohuERmzVNznkEiwb1AKL9TOOhMIZIczAaRMwwn2jVC4hF5e/EoZ6W1CHYg4MZSVtNHgFT4QUV3qDD1PnsDDLjKrxbVqSU9mBtmOnWbmcc01u9GYOmDbFUaO2yOjjAUt62fwr+mjF55P4OILNiBJ4XhM//V4qBFqT88YYepD1FPmZHRIsiXTBXa+LDBEiMkLxpm4fP/CCnz5VMJ93qKbfBPvLIkbNNU6RI3r+eNtVAPCvaro7TD+MfXpYSUhVlADvnTBQj87zAzUa6HldeKkQ0fg5xdNYh6TwdL1Ls46exFjouHsHAfZUBLBfA2KC224856RmDjFNvHRGae+jASvcbXKxU5RoYRSNDrW5cdYft2GjGEoHIjQpWmwlzGZ4l0Jn4ilNihM+P7Fw3D0YaOYWbJxikWp9bKzvpTRc7Sq20NHOoyjjn4FLc1DeSyGyuqN+MsdUzFqJF0dFUhjt1rV49dPhGOvu2y/Apd58xO48folWLakGHmn2BhpnvGzredN8qVkoQlnnpPDhedNZFkafsoTsSLIsR/YWtNnRsn5KWjZHMvUUjAtXjHIzu+z/tKCm25KwrU9xBnm3PXXKRg1jjeyBI0cqD0aglNDNXngv8VDsgswRuc1NBIbWZZZzWPbJ99NB/zZBydn49HZ3WSKDTLvjRFaMOoybocbI/OA2eSgw9wYpFLwHgWmLtNDSgEG4XneZ1EAo4cmccghVXAYxM5fksLC5QoBIqxPgb/u16ZFtVRksq1NgjffpaRyL4ybtEYvTySBnTWLat1sljXHsc8u5fjmN8YTuhTPBfDPJxJobymjLDS8o7FNxk90nzvPLMKkyVQctvbpf2rxRiXdMo2CchNSmrXXFK551DXg8+Bnhz38UNBeqI2uWnERU3G6Ouj5bZ6NUNFPPKYShx5aTffZQU/C613JQyEPO6uPjb1Dadt48skmtLZU8NooY7Qc9mfSMmI4kcV0sBIsXwnFi88o3TZRx6aL3mP3CJOYvXHZpdW8rxNFkeWIhtex6LXko55tZVbBWsz0aE8ZISp4cSyPklgK5UVdKI/muQlJgbXLOnH7H1bgT79fiduvXYylS9YjEmUIYmustpvyYahApH74Lwvxx2uX4He/W47raAypNoYW5LWI5ceIjNKYKA3NJvrbGtrLsz/6SUYZ9SijQ3e3fE0Wr7yRoPugklkUGBWhQFeizVcKbtzre5BuCLTIgkerJKqwatPZJu6ksDWMcvBBFairoLI5Nh6Y3cF4YjgcZnRaGmY2i/hFS9TKMpf79zf95qbjHhsWDGrgiIruMCwopCj4Vhy0fwi//vnOqCpnx7GTulMWHnm4g51RTsTTfcQsCjBkteOkU8vZiRnkkyE8PLsL2UIN8gyqHaJYnhqVJ+Oam5XL9Xnx+fF6+NFyMXkIi4Zmq1PopmzGUvFoO7761TJ842s7oIhAaQWElPwYcFDcyh3/bL3pkdQuxp+PPsYY26ViM+4sKm7B0ccOk55SprISGgcVXujrz8WzLLohudCQW4uwSyQtCuCL/1OD3/9uBtu1O6797RSc//US/L/T8jjlhDB2ml7MPvHRWGOfNlVFGbrN0CXIfjPDVFYazW0urvz1Yjzwtxxm38/Y/8F21JYzbOD1eQE9wUPgEIrweqcC993j4P4H0rj7niQz+rXIe1nW00Xj0dw2TZhCtAk0ilc3H7HYHlH07HS3jEoWx6xZ66gwBGx2gF7nZlGxZKSCYfMRHHOvm0JeO8ImOSCZh5VYuRSHnaAtFk/gyKPHstFBbFiZwqvP0Vrp2hVgaQl7gHuz9lALDugClAUGFa9w759TekBnTx6EQVEqYcxqxLTJHfjhD0fgsl+PRWWVQ0XV6+dCePyJdjQ0aeWJyiRXGlinW5s8Cdh9zxCPOHj2qWY0rGPYoUbxvgCVwDyvwnNSVtVnNjMkotjJ58esVs6nGTcFEWLsWEol3GfvNlx9/SicfV4tiuLyHux4dbAUUS6L5W6LtGpmxXsJLF5IFxZRppvFyHHAlKlsqfiyiWjkTU9QarwWWj1O9Pe9h6TPFlLJ9Ao+iyASi23C8GHAQQeW4+zTJ+KC7+yA739vCg76TA35kFP3ybxYkDGe5K14PkMFa0tFcMXv1mHxyiiy7HeH7v7Yk+owdjw9AOUSZIJToAIysKQ9sE9PGkpeacjUmYxTh7/en8OsRxJIM1dwhcLcFKrJegL0roFw/8cZTczoMgzK0Np/9asXsKlVWakUi2eNEnIn8KF1ycVor2ZJENl8GMuX22ht19Sf7qFwjTI4OPgLFi6/fAJiDBBffaEV9zy4kiInomqqq5c+KFyM8Kdftr71npaNFcUsDB9hY7c9K7DjjhUoL1XwIAXW8IyHrmQU53xlORYs1ZvAKIQs4yJ2YthO4uLvVuPUEyhMhgr33Lccc19jB0tZGdP4A88yL0lPna2O1ncd8ffmHF1kiKFISUmBCUol9tq7HOMmltBdahU2FddMeWnIyi/HKKJu07HN5Na716O3d93Wgmtu6kAyTENwyrDfXjlcf80YlkkuyJZfey+RD/7Qb2XdfvmqhzvTRwpLfPRSSKF+s+haXCakdlghiMIghjJmwS8Vm9dmibbrNuVw3XUL8ey/tJaRxhRowfQp5bj2iokor6a87m/Cb69hTM3QpIwZ/KwHJ2LYEAevzy/gggtX0htVI58vUC6d+OrXYjjh+DGIKcKjMdv0etR8sUm0V7izffITmKyGI2zkGA8aAaoc/7TR9F4hSkK+MrJJbNOGpizOOfd1NLdU8hwzO3UEs7NIoAvX37oTdt4JVMZuFHJVVB12Ey1cS8d6lc6Uz49+9yrj+3X1kNx0QIPUJmmgkMmckgxN7Xl0+QrnX3wxiwsu6EQHLdema4jQxeWpbEPrunDv3TNRV64Hvhg9ymSprHqe2bSFHxZlGut3rDa//s33ZpaEN4TDbDS/SbRmDpab9FnhnD8tqNE8HWePqCxT7pZlaa/1i5f9dCVmzbGRjhEBc0NQHl+BE44sNYsNtDJe14nM3x7lNgUakiy0Z5m6QgkYj2koC4wL5RQsTX2OK8aUHct5u5IppjA83tziYP1aF889vwGP/r0V7W017Ptqor+DuqHL8ds/TMa08YqfI7jrvg347dXM9KmMpVYn3fhMjCUCK6//232N+MN1G5Fk0uc4w+jQYxg7tpUJWSn23L0GtXUOKipoIAJ1u5fvjyZfGSkkkfabC80nKaPcjs5L0P5xHsKf7lmLq67Xwlmtr6OLZEzpMAPfd2YKV121K4rjSSKKZieYsPA2lWGUbrM6trXfknr5UxkfnNNrQNL0Qhdd+DZeeqkIOdalB6bk+tVhp58ZxPnfGG7edKsExV9iJYXxM8EP16M6+ubH339wXoqwJfk8bn58W2U5NIqbb16KW/+k5/ZGMHZtpRF3EM20nlJKLQvpLZH3bF6mOdp7pOcv40Dj1uWSGS7orbqW1YDjT4rikgtnUCasm+5/zQbgy6ctRHOyhrJqQViLIvIxRpM5DB3agl/8cjJm7hI2C3L1dOUdf23C1VclafQZytDGfQ+PxaThSoaY2DCW/fPdK3H9nxrRmRlL3stpROvZz3qrbxH22qsFN1y/B8tiT2icqh8kmzYC6nvTOV+A/oIC7nUHTS+ZCeDhBxuIWmxoIEpMoDXRQvVQ0ZFHj0I02otiGsLZuqyPuwkpfLTgP7NRuwwirViVwfz57axfeCWkUjxqo6w0gSOOGEqX57u1Lcvq/f5xt14++ipjW8c/vGk69ICDhqOschXC1ip6i04mJRZRnUrABMUtMIbn5pmNCVnP782PO4VSfi/lvsQgl0tsctgPDhFKoxn5nhEL82w1AURxtN57ozHOgscrguUIZvVmjg3Y56AO/P666Zg6s4jXaZyUxiBeda/LpMe86IqhmHH3Ko+JGs8ff/J4XPrLHTBu3Aom/cup4N3kgfGkV4KujLwT9VaD9v0ko4zbIjM8YaxUbk2XurQYf6Hmk89uxIb6SgpEyEk4trXcyMO40Tb23kerYqgApnh/2Mf3h77Ff3xSCbpXNWvzy1G68dDsJiTTtQwBNB5KhTQBewEHHhTE8OEyEP3urVf89M9K/5OkmHrihDh+/ovdMHliE6qjVKd8HLE8M1bFeUhucwv1sQ8FOvm9m0qthLKD39tYTorneuQm46UiBajwQcdl6BRAZSyB/fbvwlXXTMLlV87EyDEMXxRquBqsp5wMcOSIsG0ElQT3ze/3pEgKGw4nmTSV4u7bP4Pzv1OJ8RM6UREHETcKO6+nDQtUzq6eO7ZPH+mmFSz7J2gN3OmpP4eNymQDOO+bC/DW/Bp/CMQsQO2GlXNx0ffLcdrJVbJDtYf3KbgXnMlCZCo+enyorq32W5IvVA0b6bsG6LXKeH1LAV8+eTETKPIRIq8M2i3GrHFmcTcw091ltwryQUEKIcyrSUgSMj9919OHDLax7w9tswyGFx5dtVaCZwkfG9a7aFjfwWN5ukTd2HO/v5PU3qe+jumXYkIzIkQUZFRCBXIxcngMk5hwiTR/3J1y6UVaDXLusGMVaqt4nQlh9MQgpaJBfMpQM1IOy3r+pU14ePY688SfHpf9zoW7YWhlnErJpI1GrxVVWjUl5c2xTvXOmlVpNK5LobTUxS67anaIYZHdv8dVjTL2fP+Q0DS07TdOTdeMgJYHxTD31XZ8i9lUPl1HDugaGDRboU5aW4bMz0RNtVyl7hGi9ohNmimL467PDtpqvyX5aKhzZrErheDkg7j1nhW46QYG1IUKxl0tjB7iCAe7sPtuOdxw9QyEIhSEsnu9u8fghCrXv23V82EZbGvfH9pmGVRGtUkKouRInsWEMDR2ycz3KH1Tn2XyevVTwcyAKBvnMR1XNQwdzH2M5TTLpUkHDWapPzR7pjL8OJ4X0UCEeC612mHmoYUmnpE3e47KrRfohwJy5V091xdzY/lmkXKSB/yRCo1Pqt/9RJN5hi1A2j4ZTtWAvreeRvK7n0O5yFFes2dtQMbRG6roGM0UGoNcZihHHFmGynK1U0GuMkrd2+NapZQs5sN19HeTMrLtslyabWdbGv94uJ5KqZkSTZulaDTkMevgxJOYtEQYJZk6JRhdow+lasrZvNz/wqaPmTKMMR7TOkgqEOUX0OO4hmfJa1ub2rDVnn3jy1jHNLSjZ6ClIJS/FEJFUgmDjOUUl4YdIp1Db0a5aPNneDSGqeulRCEqnY1wQGGAHlUtmCQwbDyMAErvSNIUJK8345/STOoDY1kzO8W6/GV3GtNl2f0ko4zGOvra9GE9BtRYpeZc16zLERmpkcxOxYMeC1UhZUUeDj90aM9AuTLoD+7XdT2/tiy/P5upm402CZQYJg4wNHjulU2ob6QwbR7RIDOv0puxJk2MY889/BclKaHoDQt0c8/O/P5vbkIQE9tKS4iOYKdrwbFpqxSDnb71JlXQGzmEdOpord72V9rrmBRCG8mULzAgIgm12H7+8evSnll3gH0mgQktTQbOuv1N97FMIqPpP4ZWeuCKNfI4DVozQSLDo8rTin7GhIxzzbSlekf1KySjq1f1vUsJ+0Pi9CPItxX9U+M1j/zgY+uQcKpZnzJXvXKEoE/m9t2jgB3Gy7LFFEm8GsEItnnMMGnOfALSsgcf3dRhOQLAPXPakaJ71soWsVdwimAHkzj6mDjiUR7TuCTdlqWXOJIMO6a522ny/wpRwei+NC2oIS8zWG1Qk50opfAF7u/la42yaRkbk0e9PECI6LfabP5yNP9WrahRzGhmu5S8aR/Q4xEqg9fprRxGlryT2qIFRHoln7lfm97LQ7RjBsoy9ExQzKi5lMpjZswz/KV+YGXUATDx0gIOgbNelcfSKGd9cj3SVk39o4/sGdMglUUmFNs01ANPP9FsAm3zYk51r1uESKTdPLFmxqWNJHSzKYK0xY+PTxrBJRNywapPcexrrySwfJGm8oQa5JHHtYqkti6Pgw6uNdcbO/gQ/Zu8fEqkjjfqRLlqNbTDxMHTCm3+NvEYO9LnlIiJTex4vWBfMuBRIp3HDDVANDUvYKUn8t2m1pcaNeElVIpghuXplS5EXCUmmgLkfao3r7gw2CkxsVxeIxR0BRiKWVm39upHo7SKGX3Ja5oXTAg1sWHiXaKmeZNHkC5ZCmw0UveJdI+40fH+0XZgQnO0tBo2SOHsk/9oRltzJZliFaYhdAi0rmlTbczYqVRARMFIOT5tUlCuZllIUzCzHmhg9jeMRuG7KIUGQRrI5z9fg6oajW9qOGfgkmTX2JDHmtXtWLs2geZmytdRtq/BeCYFcsPGBhXvKgZjgiMlZHzc1hBCPhWnNvOcWUBhIdGZRyrnIpXNoiOhaT+hmRawFPHeCK+hstBYW5qirDOFVWuyqN+oVdlUfg3B8bzRIaI16GF4U48S+UlfosNDLsNvRECNN3oEoETCRnvCQYb90dSRo6Ir3OhRJ4UGqvdj0naUUSBLlmlZLQlgziPtbGApGSdTupNKYAdaceLxoxAPa06aSmMRsj9F8FE252gNoUth8Pvi5UnMfysHR++hofvXYC68HOKxdhx1zChynCJ/vdY5MEle5rY/LsKchxbi6WffwS1/nI/b//ge9LoRx7hvrSbqpKoUkMvHkKfCuQHKIJzGo4+9g4YGPZjGCJmJnBvoxqtzm7H8vS4sXdaBF55fg2w+aF4sn85pQQTRl+4zR2O949Z3ef+beOZfi/DXO1fjxquXIZ8so+7kiHDtrLvAxJT4ykQqm7Go3AUafwIvvrwS69d2meM5R2XrtSj1eOWV5ahfl8Hjc5ZCL2PN5MLI55mJ87xLw8nnWS7L6y8ZZfxQttezaTWOHubWyzJffKETa+tpL3QBUka9NV9vDRg7Pol99maWxnIEzNLSvsr6pJtiGvNcMJVRMwiPzKlHe0qLAPyhJs2pa43jfgfEMHKEFnXKRhjPkv2+yhsIm9yp41biiOP3wUnn7IZvX7InFixagm7qW2cqh5fnNuDZp9vR1JKCa+XRZcYHOzFvfjMRSW8r0jsgHCx+rwnzXk2YB6zydLVZCiublcvWA1c5vDJ3AxYsaEEyLWXWCnULx5ywB045Yx987aKpRLQ8NrVSaZMFvPpyK55/di02trQj63XTIApYsqQD89/sQnt7lIpp04G7WLkmYf6jqOZNLhXTMnGv4xLZg0RtovLceSvx+hsr0MXvAR7zX0fdPzLKuHW29/7G04JvrTJ58P4ONogdbKepIIxDTEUuDj9yCEpK/PV+foLQRzn/zkbf72qJGt1J2yYPTz3ZQa9Dt2xpMJUKSYHY7LDjTx7F67WCRkG3EHOrcgbQJieo/94tx4gm0x3CwgVZhKIR2JEA/nb/PCS7PJSWxPDnu18hMobwyMOLsWplN1LpABa9G6abLMPcuWvx0osrzJDa3FfWmATaLDKmy+3ozOLOO59FvCiMN9+uxz+fWkkDYN94xcglWXd3AMuXdqM7n0CUfffYo2+jtSWD0rIo7rpjGZIpC08/swwvv9xExLPwEhWVwsbCxesx+8HFsKNhvD6vm6GFhnq0HiBEPl3ceffzRFkLza0pPDTnTQIG6+R9/aWPREatANejkm/MayfzsmcqhuMgEgwz1o6griaNg78whDGaXmGickxhW5bxb24ag7MYl2juec6Tq5BOhRmn6n0ujHd0PtiFXXeJYMcJpQgRlc3q6I9q0wDYyB3jLwePzZ6PWXe/iffe2ohvfe1gsxL70MN2Q0lFFTY0ZpHMZNjJwII3WnH4seOx975DMXUm40GCwuuvpnDU8Xtg5p5VOODzowgMBbpzxvchF4uX6O0a45HoqkBF9Si8uzBJl8nQyi3GnNmLMPsvb+DNl5fhK2fvjnhpBp/9/E4YOmIs1mzIo621iB4ojoVveDjyuInYfc86ep1a4wVfeHolDj9qDHbabSgOOqQaVojJjh5uIwCsWdOC+vVh9s9QhMITMO+1DoYH/oNs/aWPREYlLikiz+N/TzBA1uJJzRTQDTBpsb0s/ueQctTUqARlgVRVMzb1EUj7STY6By0y3cTkb9acVXQJDOjzGlkn624JopEEjjyqCkUx5X0ajuCmTL+vsgbKRjmFiOwnHrcHzjtvMs4+dzzGj42ZFS633LgQTe1NmDipCsWxUXI0THA1QpBHkKFKKKSH57LsdD3vIuMjSGjQI0uMYmKhwe5UUpMA1GKrG0XFaex/4Fj2jrLrZpx46mScdd5MnPvVydhxYsi8RvCu297GstXrMHZyBWrqmNlbdPlp27xaL0x0iwTphj29gCtIENIq/4JZcOwvuqBhkUknpxCJXirSDUTbcOixE9gPGvH4mMq4LXK8GFasdPDyK41URD1xp5iRsZuVQbhoNQ7/koZzJC0NhrIofaViyvI/LdKD89mAXlfSgk0NI2gI1eRBx1kj/4waHsK+B2iSlULQQJt40EDrxxDC/z55RBUGelQwDVVRrGYg36XoEu1JTJs6jLFhJ1rqs6bjR4xO4503GrB+VTcWLWhAhCH09BlxPP335Wha7+GNucug3NWmYlhM5mZMK6dCrsckeovurm60t+l/UKDHCHRB+aX+W7eCnq1g+KPldK0trZg5fSxS3Smi2ybGljnmAi6ee2oxNq7N0iUv530udt5tJF5+diPaGl289MJqI2Iz4WB1YtSwChSHYxgxpARF4RA2rW/xu0OjQf0kejpD5of2stzevRKhO+5ciL/d18oAuY4drkFUJTDAAft7uOii3dnIvKIGHlNjVaKW0Uo0RjPfL6uXtq5jW/te0vBDKhvE5Ze+i9dfj9AoWI/+jxQqqO0lcfqZo3HcCSMQ1nJ6ugvNSPhl+IlUX2WK+jom2vqebe37Q9u6V/8J0YI3WjBhUgVKSnOUXwkv5g0U7HsrWzH/pQ2YtGMVldPCiDFxlERL8Mw/30U4DCZp4zBSC3CpVa88uw6JZCNmzJyCqjr9dxhZdDNxGDWyEmtWJPD6mwtQWVeOfffdCeFYHu++1o6JUypRXKyJCIqR2qIXCaxensfLL67B+Ml0sZEgYsUpjBs+Bs8x01eiOn7sWNQMLUJZRRSvvbQO6zauxE4zpyJWZKO8vBgbNrRg4g6laG8sEDTeQTxWjM99diqKSjSf3U3A6t/TgUYZe75/SGguXXGW+pfNMGgW+0RFHZfgYlFaok0LN0mDFt3S0ugypKx6npZftiizl7auY1v7XvIK+s95PKRSJQymmYmyGnWaxrI081AUo20LJXWYiKgkyizFJ2Jvq0xRX8dEW9+zrX1/aFv3mhkPIRP51TM85jFY8c17zByHAn8atcb6zIug5Ap1nYxci28N6ksulbyCrppBZMAMOhOKTG+qDI3B0ouRVX/MsMuMEZqXbqmfzHiwJg0kL8Z9hDD9VyQFhmGarzYv2tJ9mviQdNnHZkKDFWg8wE9We4iH9f5NLWzWLI1merTaXf8BqeanA5bWMWyfPlIZ9a4WNUUaoA5WI/xukLB4PRXRxCxmrlTMsSgyb6b/eq7sLauXPlxH3/teMq8CEdxTiJ7KNqeMRrK2FPca+PWR2F+821MHE69tlSnq65ho63u2te8PfVQZEpWRJ9tk3nwhJKcMTSIo78Pvii3ZELo73kN3aObn9bAY5V0goulNu7pH/lAcqf1aUOI/I6PhLfVJT79IQUy/kIwya4UN+dGiBnOQv8WXFFTVmmsILGYCgTKm1xE7BehtIeK3pyxdTOVVyCQejMJK4dVWDbGx/wJ6S34/aAtlHKRB+m+SzGaQBmlA0KAyDtKAoUFlHKQBQ4PKOEgDhgaVcZAGDA0q4yANGBpUxkEaMDSojIM0YGhQGQdpwNCgMg7SgKFBZRykAUODyjhIA4YGlXGQBgwNKuMgDRgaVMZBGjA0qIyDNGBoUBkHacDQoDIO0oChQWUcpAFDg8o4SAOGBpVxkAYMDSrjIA0QAv4/oJyTGn5CYY4AAAAASUVORK5CYII=;" vertex="1" parent="1">
          <mxGeometry x="585.67" y="570" width="108.66" height="56" as="geometry" />
        </mxCell>
      </root>
    </mxGraphModel>
  </diagram>
</mxfile>
